<?xml version="1.0" encoding="UTF-8"?>
<svg width="24" height="24" viewBox="0 0 24 24" fill="none" xmlns="http://www.w3.org/2000/svg">
  <!-- Stack of material boxes/inventory -->
  <rect x="4" y="16" width="4" height="3" rx="0.5" stroke="currentColor" stroke-width="1.5" fill="currentColor" opacity="0.3"/>
  <rect x="4" y="13" width="4" height="3" rx="0.5" stroke="currentColor" stroke-width="1.5" fill="currentColor" opacity="0.4"/>
  <rect x="4" y="10" width="4" height="3" rx="0.5" stroke="currentColor" stroke-width="1.5" fill="currentColor" opacity="0.5"/>
  
  <!-- Middle stack -->
  <rect x="10" y="14" width="4" height="3" rx="0.5" stroke="currentColor" stroke-width="1.5" fill="currentColor" opacity="0.3"/>
  <rect x="10" y="11" width="4" height="3" rx="0.5" stroke="currentColor" stroke-width="1.5" fill="currentColor" opacity="0.4"/>
  <rect x="10" y="8" width="4" height="3" rx="0.5" stroke="currentColor" stroke-width="1.5" fill="currentColor" opacity="0.5"/>
  <rect x="10" y="5" width="4" height="3" rx="0.5" stroke="currentColor" stroke-width="1.5" fill="currentColor" opacity="0.6"/>
  
  <!-- Right stack -->
  <rect x="16" y="18" width="4" height="3" rx="0.5" stroke="currentColor" stroke-width="1.5" fill="currentColor" opacity="0.3"/>
  <rect x="16" y="15" width="4" height="3" rx="0.5" stroke="currentColor" stroke-width="1.5" fill="currentColor" opacity="0.4"/>
  
  <!-- Clipboard/checklist overlay -->
  <rect x="1" y="2" width="6" height="8" rx="0.5" stroke="currentColor" stroke-width="1.5" fill="white"/>
  <path d="M2.5 4L5.5 4M2.5 5.5L4.5 5.5M2.5 7L5.5 7M2.5 8.5L4 8.5" stroke="currentColor" stroke-width="0.8"/>
  
  <!-- Small checkmarks -->
  <path d="M2 4.5L2.3 4.8L3 4" stroke="currentColor" stroke-width="0.5" fill="none"/>
  <path d="M2 7.5L2.3 7.8L3 7" stroke="currentColor" stroke-width="0.5" fill="none"/>
</svg>
